<svg xmlns="http://www.w3.org/2000/svg" viewBox="0 0 200 60" fill="currentColor">
  <path d="M22 10 c-8 0-14 6-14 14 0 7 5 12 12 13 0 0-6 2-6 7 0 5 5 9 12 9 8 0 14-5 14-11 0-7-6-9-10-10 6-2 10-7 10-13 0-5-4-9-8-9zm-2 5c4 0 6 3 6 6s-2 6-6 6-6-3-6-6 2-6 6-6zm0 18c5 0 8 3 8 6s-3 6-8 6-8-3-8-6 3-6 8-6z" />
  <text x="48" y="32" font-family="sans-serif" font-size="22" font-weight="bold" letter-spacing="-0.5">glenmark</text>
  <text x="48" y="44" font-family="sans-serif" font-size="7" font-weight="500" letter-spacing="0.2">A new way for a new world</text>
</svg>
